<svg xmlns="http://www.w3.org/2000/svg" xmlns:xlink="http://www.w3.org/1999/xlink" width="50" zoomAndPan="magnify" viewBox="0 0 37.5 37.499999" height="50" preserveAspectRatio="xMidYMid meet" version="1.0"><defs><clipPath id="a0e75b0f24"><path d="M 2.945312 1.136719 L 34.441406 1.136719 L 34.441406 31.644531 L 2.945312 31.644531 Z M 2.945312 1.136719 " clip-rule="nonzero"/></clipPath><clipPath id="988b10fab3"><path d="M 14 28 L 23 28 L 23 36.363281 L 14 36.363281 Z M 14 28 " clip-rule="nonzero"/></clipPath><clipPath id="5e2f5b9472"><path d="M 10.398438 12.195312 L 26.898438 12.195312 L 26.898438 27.945312 L 10.398438 27.945312 Z M 10.398438 12.195312 " clip-rule="nonzero"/></clipPath><clipPath id="c937820e16"><path d="M 17.46875 6.710938 L 19.71875 6.710938 L 19.71875 10.460938 L 17.46875 10.460938 Z M 17.46875 6.710938 " clip-rule="nonzero"/></clipPath><clipPath id="cbf994986b"><path d="M 25.820312 11.695312 L 28.070312 11.695312 L 28.070312 15.445312 L 25.820312 15.445312 Z M 25.820312 11.695312 " clip-rule="nonzero"/></clipPath><clipPath id="ee7bf3ad8d"><path d="M 9.117188 11.695312 L 11.367188 11.695312 L 11.367188 15.445312 L 9.117188 15.445312 Z M 9.117188 11.695312 " clip-rule="nonzero"/></clipPath><clipPath id="78d0a71415"><path d="M 21.273438 7.765625 L 25.773438 7.765625 L 25.773438 12 L 21.273438 12 Z M 21.273438 7.765625 " clip-rule="nonzero"/></clipPath><clipPath id="319d398146"><path d="M 21.273438 11 L 24 11 L 24 13.015625 L 21.273438 13.015625 Z M 21.273438 11 " clip-rule="nonzero"/></clipPath><clipPath id="614efd25eb"><path d="M 24.605469 10.152344 L 25.773438 10.152344 L 25.773438 11.339844 L 24.605469 11.339844 Z M 24.605469 10.152344 " clip-rule="nonzero"/></clipPath><clipPath id="dc8f55d40e"><path d="M 12.070312 7.765625 L 16.21875 7.765625 L 16.21875 12 L 12.070312 12 Z M 12.070312 7.765625 " clip-rule="nonzero"/></clipPath><clipPath id="210ab2f265"><path d="M 13 11 L 16 11 L 16 13.015625 L 13 13.015625 Z M 13 11 " clip-rule="nonzero"/></clipPath><clipPath id="d16424e3aa"><path d="M 12.070312 10.152344 L 12.882812 10.152344 L 12.882812 11.339844 L 12.070312 11.339844 Z M 12.070312 10.152344 " clip-rule="nonzero"/></clipPath></defs><g clip-path="url(#a0e75b0f24)"><path fill="#efb810" d="M 18.691406 1.136719 C 14.488281 1.136719 10.53125 2.777344 7.558594 5.761719 C 4.582031 8.746094 2.945312 12.710938 2.945312 16.933594 C 2.945312 20.140625 3.898438 23.230469 5.703125 25.863281 C 7.464844 28.4375 9.914062 30.414062 12.789062 31.582031 L 12.972656 31.117188 C 7.183594 28.769531 3.441406 23.199219 3.441406 16.933594 C 3.441406 8.496094 10.28125 1.632812 18.691406 1.632812 C 27.105469 1.632812 33.945312 8.496094 33.945312 16.933594 C 33.945312 22.875 30.46875 28.328125 25.089844 30.824219 L 25.300781 31.277344 C 27.992188 30.027344 30.273438 28.046875 31.894531 25.546875 C 33.5625 22.984375 34.441406 20.007812 34.441406 16.933594 C 34.441406 12.710938 32.804688 8.746094 29.828125 5.761719 C 26.855469 2.777344 22.898438 1.136719 18.691406 1.136719 " fill-opacity="1" fill-rule="nonzero"/></g><g clip-path="url(#988b10fab3)"><path fill="#efb810" d="M 16.226562 32.480469 C 17.367188 32.0625 18.277344 31.152344 18.691406 30.007812 C 19.109375 31.152344 20.015625 32.0625 21.160156 32.480469 C 20.015625 32.898438 19.109375 33.808594 18.691406 34.953125 C 18.277344 33.808594 17.367188 32.898438 16.226562 32.480469 Z M 18.941406 28.59375 L 18.445312 28.59375 C 18.445312 30.597656 16.816406 32.230469 14.816406 32.230469 L 14.816406 32.730469 C 16.816406 32.730469 18.445312 34.359375 18.445312 36.367188 L 18.941406 36.367188 C 18.941406 34.359375 20.570312 32.730469 22.570312 32.730469 L 22.570312 32.230469 C 20.570312 32.230469 18.941406 30.597656 18.941406 28.59375 " fill-opacity="1" fill-rule="nonzero"/></g><g clip-path="url(#5e2f5b9472)"><path fill="#fa6611" d="M 21.496094 21.617188 C 19.917969 18.695312 18.957031 15.480469 18.644531 12.203125 C 18.335938 15.480469 17.378906 18.695312 15.800781 21.617188 C 14.585938 20 12.746094 17.988281 10.398438 16.445312 C 12.515625 20.476562 12.988281 24.183594 13.21875 26.195312 C 13.949219 25.382812 15.199219 23.625 15.847656 22.511719 C 17.003906 24.164062 17.949219 25.984375 18.648438 27.941406 C 19.34375 25.984375 20.292969 24.160156 21.449219 22.511719 C 22.097656 23.621094 23.347656 25.382812 24.078125 26.195312 C 24.308594 24.183594 24.78125 20.476562 26.898438 16.445312 C 24.550781 17.988281 22.710938 20 21.496094 21.617188 Z M 13.585938 25 C 13.324219 22.582031 12.699219 20.246094 11.738281 18.0625 C 13.15625 19.234375 14.433594 20.585938 15.539062 22.085938 C 14.964844 23.097656 14.3125 24.074219 13.585938 25 Z M 18.648438 26.621094 C 17.976562 25.003906 17.125 23.460938 16.113281 22.046875 C 17.269531 19.957031 18.128906 17.695312 18.648438 15.316406 C 18.648438 15.316406 18.648438 15.3125 18.652344 15.3125 C 18.652344 15.3125 18.652344 15.316406 18.652344 15.316406 C 19.175781 17.695312 20.03125 19.957031 21.1875 22.046875 C 20.171875 23.460938 19.320312 25.007812 18.648438 26.621094 Z M 23.710938 25 C 22.984375 24.074219 22.332031 23.097656 21.757812 22.085938 C 22.863281 20.585938 24.140625 19.234375 25.558594 18.0625 C 24.597656 20.246094 23.972656 22.582031 23.710938 25 Z M 23.710938 25 " fill-opacity="1" fill-rule="nonzero"/></g><g clip-path="url(#c937820e16)"><path fill="#fa6611" d="M 18.59375 6.714844 C 18.21875 7.183594 17.84375 7.652344 17.46875 8.117188 C 17.84375 8.898438 18.21875 9.679688 18.59375 10.460938 C 18.96875 9.679688 19.34375 8.898438 19.71875 8.117188 C 19.34375 7.652344 18.96875 7.183594 18.59375 6.714844 Z M 18.59375 6.714844 " fill-opacity="1" fill-rule="nonzero"/></g><g clip-path="url(#cbf994986b)"><path fill="#fa6611" d="M 26.945312 11.695312 C 26.570312 12.164062 26.195312 12.632812 25.820312 13.101562 C 26.195312 13.882812 26.570312 14.660156 26.945312 15.441406 C 27.320312 14.660156 27.695312 13.882812 28.070312 13.101562 C 27.695312 12.632812 27.320312 12.164062 26.945312 11.695312 Z M 26.945312 11.695312 " fill-opacity="1" fill-rule="nonzero"/></g><g clip-path="url(#ee7bf3ad8d)"><path fill="#fa6611" d="M 10.242188 11.695312 C 9.867188 12.164062 9.492188 12.632812 9.117188 13.101562 C 9.492188 13.882812 9.867188 14.660156 10.242188 15.441406 C 10.617188 14.660156 10.992188 13.882812 11.367188 13.101562 C 10.992188 12.632812 10.617188 12.164062 10.242188 11.695312 Z M 10.242188 11.695312 " fill-opacity="1" fill-rule="nonzero"/></g><g clip-path="url(#78d0a71415)"><path fill="#efb810" d="M 25.601562 9.761719 C 23.746094 9.605469 23.609375 9.476562 23.4375 7.773438 C 23.265625 9.476562 23.128906 9.605469 21.273438 9.761719 C 23.128906 9.917969 23.265625 10.046875 23.4375 11.753906 C 23.609375 10.046875 23.746094 9.917969 25.601562 9.761719 " fill-opacity="1" fill-rule="nonzero"/></g><g clip-path="url(#319d398146)"><path fill="#efb810" d="M 22.671875 11.488281 C 22.605469 12.140625 22.554688 12.1875 21.847656 12.246094 C 22.554688 12.308594 22.605469 12.355469 22.671875 13.007812 C 22.734375 12.355469 22.789062 12.308594 23.496094 12.246094 C 22.789062 12.1875 22.734375 12.140625 22.671875 11.488281 " fill-opacity="1" fill-rule="nonzero"/></g><g clip-path="url(#614efd25eb)"><path fill="#efb810" d="M 25.234375 11.234375 C 25.277344 10.8125 25.3125 10.78125 25.773438 10.742188 C 25.3125 10.703125 25.277344 10.671875 25.234375 10.25 C 25.195312 10.671875 25.160156 10.703125 24.699219 10.742188 C 25.160156 10.78125 25.195312 10.8125 25.234375 11.234375 " fill-opacity="1" fill-rule="nonzero"/></g><g clip-path="url(#dc8f55d40e)"><path fill="#efb810" d="M 11.886719 9.761719 C 13.742188 9.605469 13.882812 9.476562 14.050781 7.773438 C 14.222656 9.476562 14.363281 9.605469 16.21875 9.761719 C 14.363281 9.917969 14.222656 10.046875 14.050781 11.753906 C 13.882812 10.046875 13.742188 9.917969 11.886719 9.761719 " fill-opacity="1" fill-rule="nonzero"/></g><g clip-path="url(#210ab2f265)"><path fill="#efb810" d="M 14.816406 11.488281 C 14.882812 12.140625 14.9375 12.1875 15.640625 12.246094 C 14.9375 12.308594 14.882812 12.355469 14.816406 13.007812 C 14.753906 12.355469 14.699219 12.308594 13.992188 12.246094 C 14.699219 12.1875 14.753906 12.140625 14.816406 11.488281 " fill-opacity="1" fill-rule="nonzero"/></g><g clip-path="url(#d16424e3aa)"><path fill="#efb810" d="M 12.253906 11.234375 C 12.210938 10.8125 12.175781 10.78125 11.71875 10.742188 C 12.175781 10.703125 12.210938 10.671875 12.253906 10.25 C 12.296875 10.671875 12.332031 10.703125 12.789062 10.742188 C 12.332031 10.78125 12.296875 10.8125 12.253906 11.234375 " fill-opacity="1" fill-rule="nonzero"/></g></svg>