<svg xmlns="http://www.w3.org/2000/svg" xmlns:xlink="http://www.w3.org/1999/xlink" width="95" zoomAndPan="magnify" viewBox="0 0 71.25 30.000001" height="40" preserveAspectRatio="xMidYMid meet" version="1.0"><defs><g/><clipPath id="6ded5e6d95"><path d="M 1.878906 3.671875 L 21.476562 3.671875 L 21.476562 22.519531 L 1.878906 22.519531 Z M 1.878906 3.671875 " clip-rule="nonzero"/></clipPath><clipPath id="a8becf73ce"><path d="M 9 20 L 15 20 L 15 25.363281 L 9 25.363281 Z M 9 20 " clip-rule="nonzero"/></clipPath><clipPath id="6bd3042c49"><path d="M 6.5 10.457031 L 16.660156 10.457031 L 16.660156 19.890625 L 6.5 19.890625 Z M 6.5 10.457031 " clip-rule="nonzero"/></clipPath><clipPath id="7c3f619054"><path d="M 10.882812 7.054688 L 12.332031 7.054688 L 12.332031 9.234375 L 10.882812 9.234375 Z M 10.882812 7.054688 " clip-rule="nonzero"/></clipPath><clipPath id="c1fef0e587"><path d="M 16.058594 10.144531 L 17.507812 10.144531 L 17.507812 12.320312 L 16.058594 12.320312 Z M 16.058594 10.144531 " clip-rule="nonzero"/></clipPath><clipPath id="f974ed972d"><path d="M 5.707031 10.144531 L 7.15625 10.144531 L 7.15625 12.320312 L 5.707031 12.320312 Z M 5.707031 10.144531 " clip-rule="nonzero"/></clipPath><clipPath id="661283b2b2"><path d="M 13.238281 7.707031 L 16.140625 7.707031 L 16.140625 10 L 13.238281 10 Z M 13.238281 7.707031 " clip-rule="nonzero"/></clipPath><clipPath id="2fcd66877c"><path d="M 13.238281 9 L 15 9 L 15 10.609375 L 13.238281 10.609375 Z M 13.238281 9 " clip-rule="nonzero"/></clipPath><clipPath id="ffe89d692f"><path d="M 15.386719 9.027344 L 16.140625 9.027344 L 16.140625 9.6875 L 15.386719 9.6875 Z M 15.386719 9.027344 " clip-rule="nonzero"/></clipPath><clipPath id="d3f52a4f2e"><path d="M 7.535156 7.707031 L 10.109375 7.707031 L 10.109375 10 L 7.535156 10 Z M 7.535156 7.707031 " clip-rule="nonzero"/></clipPath><clipPath id="7e3b3576b6"><path d="M 8 9 L 10 9 L 10 10.609375 L 8 10.609375 Z M 8 9 " clip-rule="nonzero"/></clipPath><clipPath id="58ce2bbe07"><path d="M 7.535156 9.027344 L 7.957031 9.027344 L 7.957031 9.6875 L 7.535156 9.6875 Z M 7.535156 9.027344 " clip-rule="nonzero"/></clipPath></defs><g clip-path="url(#6ded5e6d95)"><path fill="#efb810" d="M 11.675781 3.671875 C 9.058594 3.671875 6.601562 4.6875 4.75 6.53125 C 2.898438 8.375 1.878906 10.824219 1.878906 13.429688 C 1.878906 15.410156 2.472656 17.320312 3.59375 18.945312 C 4.691406 20.535156 6.214844 21.757812 8.003906 22.476562 L 8.121094 22.191406 C 4.515625 20.742188 2.1875 17.300781 2.1875 13.429688 C 2.1875 8.21875 6.445312 3.980469 11.675781 3.980469 C 16.910156 3.980469 21.167969 8.21875 21.167969 13.429688 C 21.167969 17.101562 19.003906 20.46875 15.65625 22.011719 L 15.789062 22.289062 C 17.460938 21.519531 18.878906 20.292969 19.890625 18.753906 C 20.925781 17.167969 21.476562 15.328125 21.476562 13.429688 C 21.476562 10.824219 20.457031 8.375 18.605469 6.53125 C 16.753906 4.6875 14.292969 3.671875 11.675781 3.671875 " fill-opacity="1" fill-rule="nonzero"/></g><g clip-path="url(#a8becf73ce)"><path fill="#efb810" d="M 10.144531 23.03125 C 10.855469 22.773438 11.417969 22.210938 11.675781 21.503906 C 11.9375 22.210938 12.5 22.773438 13.210938 23.03125 C 12.5 23.289062 11.9375 23.851562 11.675781 24.5625 C 11.417969 23.851562 10.855469 23.289062 10.144531 23.03125 Z M 11.832031 20.632812 L 11.523438 20.632812 C 11.523438 21.871094 10.511719 22.878906 9.265625 22.878906 L 9.265625 23.1875 C 10.511719 23.1875 11.523438 24.195312 11.523438 25.433594 L 11.832031 25.433594 C 11.832031 24.195312 12.84375 23.1875 14.089844 23.1875 L 14.089844 22.878906 C 12.84375 22.878906 11.832031 21.871094 11.832031 20.632812 " fill-opacity="1" fill-rule="nonzero"/></g><g clip-path="url(#6bd3042c49)"><path fill="#fa6611" d="M 13.335938 16.097656 C 12.363281 14.347656 11.769531 12.421875 11.578125 10.457031 C 11.386719 12.421875 10.796875 14.347656 9.824219 16.097656 C 9.078125 15.128906 7.945312 13.925781 6.5 13 C 7.800781 15.414062 8.09375 17.636719 8.234375 18.839844 C 8.6875 18.355469 9.457031 17.300781 9.855469 16.636719 C 10.566406 17.625 11.148438 18.714844 11.578125 19.886719 C 12.007812 18.714844 12.59375 17.621094 13.304688 16.636719 C 13.703125 17.300781 14.472656 18.355469 14.925781 18.839844 C 15.066406 17.636719 15.359375 15.414062 16.660156 13 C 15.214844 13.925781 14.082031 15.128906 13.335938 16.097656 Z M 8.460938 18.125 C 8.300781 16.675781 7.917969 15.277344 7.324219 13.96875 C 8.199219 14.671875 8.984375 15.480469 9.664062 16.378906 C 9.308594 16.984375 8.910156 17.570312 8.460938 18.125 Z M 11.578125 19.097656 C 11.167969 18.128906 10.640625 17.203125 10.019531 16.355469 C 10.730469 15.105469 11.257812 13.75 11.578125 12.324219 C 11.578125 12.324219 11.578125 12.324219 11.582031 12.324219 C 11.902344 13.75 12.429688 15.105469 13.144531 16.355469 C 12.519531 17.203125 11.992188 18.128906 11.578125 19.097656 Z M 14.699219 18.125 C 14.25 17.570312 13.847656 16.984375 13.496094 16.378906 C 14.175781 15.480469 14.960938 14.671875 15.835938 13.96875 C 15.246094 15.277344 14.859375 16.675781 14.699219 18.125 Z M 14.699219 18.125 " fill-opacity="1" fill-rule="nonzero"/></g><g clip-path="url(#7c3f619054)"><path fill="#fa6611" d="M 11.609375 7.058594 C 11.367188 7.332031 11.125 7.601562 10.882812 7.875 C 11.125 8.324219 11.367188 8.777344 11.609375 9.230469 C 11.851562 8.777344 12.089844 8.324219 12.332031 7.875 C 12.089844 7.601562 11.851562 7.332031 11.609375 7.058594 Z M 11.609375 7.058594 " fill-opacity="1" fill-rule="nonzero"/></g><g clip-path="url(#c1fef0e587)"><path fill="#fa6611" d="M 16.785156 10.148438 C 16.542969 10.417969 16.300781 10.691406 16.058594 10.960938 C 16.300781 11.414062 16.542969 11.863281 16.785156 12.316406 C 17.023438 11.863281 17.265625 11.414062 17.507812 10.960938 C 17.265625 10.691406 17.023438 10.417969 16.785156 10.148438 Z M 16.785156 10.148438 " fill-opacity="1" fill-rule="nonzero"/></g><g clip-path="url(#f974ed972d)"><path fill="#fa6611" d="M 6.433594 10.148438 C 6.191406 10.417969 5.949219 10.691406 5.707031 10.960938 C 5.949219 11.414062 6.191406 11.863281 6.433594 12.316406 C 6.675781 11.863281 6.917969 11.414062 7.15625 10.960938 C 6.917969 10.691406 6.675781 10.417969 6.433594 10.148438 Z M 6.433594 10.148438 " fill-opacity="1" fill-rule="nonzero"/></g><g clip-path="url(#661283b2b2)"><path fill="#efb810" d="M 16.03125 8.8125 C 14.835938 8.726562 14.746094 8.65625 14.632812 7.710938 C 14.523438 8.65625 14.433594 8.726562 13.238281 8.8125 C 14.433594 8.898438 14.523438 8.96875 14.632812 9.914062 C 14.746094 8.96875 14.835938 8.898438 16.03125 8.8125 " fill-opacity="1" fill-rule="nonzero"/></g><g clip-path="url(#2fcd66877c)"><path fill="#efb810" d="M 14.140625 9.769531 C 14.097656 10.128906 14.066406 10.15625 13.609375 10.1875 C 14.066406 10.222656 14.097656 10.25 14.140625 10.609375 C 14.183594 10.25 14.214844 10.222656 14.671875 10.1875 C 14.214844 10.15625 14.183594 10.128906 14.140625 9.769531 " fill-opacity="1" fill-rule="nonzero"/></g><g clip-path="url(#ffe89d692f)"><path fill="#efb810" d="M 15.796875 9.628906 C 15.824219 9.394531 15.84375 9.378906 16.140625 9.355469 C 15.84375 9.332031 15.824219 9.316406 15.796875 9.082031 C 15.769531 9.316406 15.746094 9.332031 15.449219 9.355469 C 15.746094 9.378906 15.769531 9.394531 15.796875 9.628906 " fill-opacity="1" fill-rule="nonzero"/></g><g clip-path="url(#d3f52a4f2e)"><path fill="#efb810" d="M 7.316406 8.8125 C 8.511719 8.726562 8.601562 8.65625 8.710938 7.710938 C 8.824219 8.65625 8.910156 8.726562 10.109375 8.8125 C 8.910156 8.898438 8.824219 8.96875 8.710938 9.914062 C 8.601562 8.96875 8.511719 8.898438 7.316406 8.8125 " fill-opacity="1" fill-rule="nonzero"/></g><g clip-path="url(#7e3b3576b6)"><path fill="#efb810" d="M 9.207031 9.769531 C 9.246094 10.128906 9.28125 10.15625 9.738281 10.1875 C 9.28125 10.222656 9.246094 10.25 9.207031 10.609375 C 9.164062 10.25 9.128906 10.222656 8.675781 10.1875 C 9.128906 10.15625 9.164062 10.128906 9.207031 9.769531 " fill-opacity="1" fill-rule="nonzero"/></g><g clip-path="url(#58ce2bbe07)"><path fill="#efb810" d="M 7.550781 9.628906 C 7.523438 9.394531 7.5 9.378906 7.207031 9.355469 C 7.5 9.332031 7.523438 9.316406 7.550781 9.082031 C 7.578125 9.316406 7.601562 9.332031 7.898438 9.355469 C 7.601562 9.378906 7.578125 9.394531 7.550781 9.628906 " fill-opacity="1" fill-rule="nonzero"/></g><g fill="#efb810" fill-opacity="1"><g transform="translate(24.426511, 17.118176)"><g><path d="M 3.125 -4.234375 C 1.636719 -4.554688 1.339844 -5.089844 1.339844 -5.65625 C 1.339844 -6.632812 2.269531 -7.019531 3.269531 -7.019531 C 3.679688 -7.019531 4.089844 -6.960938 4.453125 -6.847656 C 5.15625 -6.574219 5.019531 -6.210938 5.203125 -5.90625 C 5.292969 -5.746094 5.429688 -5.691406 5.542969 -5.691406 C 5.816406 -5.691406 6.03125 -6.019531 5.710938 -6.394531 C 5.609375 -6.519531 5.441406 -6.644531 5.246094 -6.769531 L 5.222656 -6.769531 C 5.03125 -6.882812 4.847656 -6.960938 4.691406 -7.007812 C 4.234375 -7.167969 3.726562 -7.257812 3.214844 -7.257812 C 1.863281 -7.257812 0.546875 -6.667969 0.546875 -5.257812 C 0.546875 -3.667969 2.554688 -3.496094 4.019531 -3.144531 C 6.667969 -2.519531 5.507812 -0.171875 3.304688 -0.113281 C 2.429688 -0.0898438 1.25 -0.453125 0.648438 -1.304688 C 0.578125 -1.398438 0.511719 -1.429688 0.441406 -1.429688 C 0.273438 -1.429688 0.136719 -1.214844 0.339844 -1.011719 C 1.285156 -0.148438 2.214844 0.136719 3.464844 0.136719 C 4.964844 0.136719 6.40625 -0.476562 6.40625 -1.964844 C 6.40625 -3.632812 4.566406 -3.941406 3.125 -4.234375 Z M 3.125 -4.234375 "/></g></g></g><g fill="#efb810" fill-opacity="1"><g transform="translate(31.059031, 17.118176)"><g><path d="M 7.6875 -0.238281 C 7.300781 -0.304688 6.972656 -0.214844 6.972656 -0.804688 L 6.972656 -6.417969 C 6.972656 -7.019531 7.300781 -6.917969 7.6875 -6.984375 C 7.800781 -7.007812 7.789062 -7.175781 7.675781 -7.175781 L 5.441406 -7.175781 C 5.316406 -7.175781 5.316406 -7.007812 5.429688 -6.984375 C 5.804688 -6.917969 6.132812 -7.019531 6.132812 -6.417969 L 6.132812 -3.882812 L 1.863281 -3.882812 L 1.863281 -6.417969 C 1.863281 -7.019531 2.191406 -6.917969 2.578125 -6.984375 C 2.691406 -7.007812 2.679688 -7.175781 2.566406 -7.175781 L 0.328125 -7.175781 C 0.203125 -7.175781 0.203125 -7.007812 0.316406 -6.984375 C 0.691406 -6.917969 1.023438 -7.019531 1.023438 -6.417969 L 1.023438 -0.804688 C 1.023438 -0.214844 0.691406 -0.304688 0.316406 -0.238281 C 0.203125 -0.226562 0.203125 -0.0585938 0.328125 -0.0585938 L 2.566406 -0.0585938 C 2.679688 -0.0585938 2.691406 -0.226562 2.578125 -0.238281 C 2.191406 -0.304688 1.863281 -0.214844 1.863281 -0.804688 L 1.863281 -3.621094 L 6.132812 -3.621094 L 6.132812 -0.804688 C 6.132812 -0.214844 5.804688 -0.304688 5.429688 -0.238281 C 5.316406 -0.226562 5.316406 -0.0585938 5.441406 -0.0585938 L 7.675781 -0.0585938 C 7.789062 -0.0585938 7.800781 -0.226562 7.6875 -0.238281 Z M 7.6875 -0.238281 "/></g></g></g><g fill="#efb810" fill-opacity="1"><g transform="translate(39.065754, 17.118176)"><g><path d="M 7.121094 -2.519531 C 6.949219 -2.519531 6.757812 -2.375 6.757812 -2.136719 C 6.757812 -1.886719 6.9375 -1.828125 7.15625 -1.589844 C 7.484375 -1.214844 7.28125 -0.511719 6.679688 -0.511719 C 5.429688 -0.511719 4.769531 -3.28125 3.417969 -3.554688 C 4.722656 -3.882812 6.167969 -5.132812 6.507812 -6.554688 L 6.507812 -6.542969 C 6.597656 -6.847656 6.835938 -6.917969 7.210938 -6.984375 C 7.324219 -7.007812 7.324219 -7.175781 7.199219 -7.175781 L 5.066406 -7.175781 C 4.953125 -7.175781 4.953125 -7.007812 5.054688 -6.984375 C 5.441406 -6.917969 5.757812 -6.917969 5.644531 -6.417969 C 5.234375 -5.109375 3.894531 -3.703125 2.5 -3.703125 C 2.328125 -3.703125 2.394531 -3.714844 2.226562 -3.738281 C 2.03125 -3.757812 2.03125 -3.429688 2.238281 -3.453125 C 3.703125 -3.382812 4.714844 0.0664062 6.234375 0.0664062 C 7.222656 0.0664062 7.597656 -0.714844 7.597656 -1.511719 C 7.609375 -1.851562 7.621094 -2.519531 7.121094 -2.519531 Z M 2.578125 -0.238281 C 2.203125 -0.304688 1.875 -0.214844 1.875 -0.804688 L 1.875 -6.417969 C 1.875 -7.019531 2.203125 -6.917969 2.578125 -6.984375 C 2.691406 -7.007812 2.691406 -7.175781 2.566406 -7.175781 L 0.328125 -7.175781 C 0.214844 -7.175781 0.203125 -7.007812 0.316406 -6.984375 C 0.703125 -6.917969 1.035156 -7.019531 1.035156 -6.417969 L 1.035156 -0.804688 C 1.035156 -0.214844 0.703125 -0.304688 0.316406 -0.238281 C 0.203125 -0.226562 0.214844 -0.0585938 0.328125 -0.0585938 L 2.566406 -0.0585938 C 2.691406 -0.0585938 2.691406 -0.226562 2.578125 -0.238281 Z M 2.578125 -0.238281 "/></g></g></g><g fill="#efb810" fill-opacity="1"><g transform="translate(46.902119, 17.118176)"><g><path d="M 8.121094 -0.183594 C 7.746094 -0.238281 7.40625 -0.160156 7.167969 -0.660156 L 4.429688 -7.175781 C 4.03125 -7.257812 3.964844 -7.109375 3.816406 -6.757812 C 2.976562 -4.746094 2.136719 -2.738281 1.292969 -0.726562 C 1.054688 -0.148438 0.703125 -0.238281 0.316406 -0.183594 C 0.203125 -0.160156 0.214844 -0.046875 0.328125 -0.046875 C 0.625 -0.046875 0.828125 -0.046875 1.066406 -0.046875 L 1.066406 -0.0585938 L 1.328125 -0.0585938 L 1.328125 -0.046875 C 1.578125 -0.046875 2.03125 -0.046875 2.328125 -0.046875 C 2.441406 -0.046875 2.453125 -0.160156 2.339844 -0.183594 C 1.964844 -0.238281 1.386719 -0.160156 1.589844 -0.660156 L 2.023438 -1.703125 L 5.78125 -1.703125 C 5.929688 -1.351562 6.074219 -1.011719 6.210938 -0.660156 C 6.417969 -0.160156 6.03125 -0.238281 5.65625 -0.183594 C 5.542969 -0.160156 5.542969 -0.046875 5.667969 -0.046875 C 5.960938 -0.046875 6.222656 -0.046875 6.472656 -0.046875 L 6.472656 -0.0585938 L 7.359375 -0.0585938 L 7.359375 -0.046875 C 7.609375 -0.046875 7.8125 -0.046875 8.109375 -0.046875 C 8.222656 -0.046875 8.222656 -0.160156 8.121094 -0.183594 Z M 2.136719 -1.953125 L 3.78125 -5.871094 C 3.851562 -6.042969 3.929688 -6.042969 4.007812 -5.871094 C 4.554688 -4.566406 5.109375 -3.257812 5.667969 -1.953125 Z M 2.136719 -1.953125 "/></g></g></g><g fill="#efb810" fill-opacity="1"><g transform="translate(55.329052, 17.118176)"><g><path d="M 7.121094 -2.519531 C 6.949219 -2.519531 6.757812 -2.375 6.757812 -2.136719 C 6.757812 -1.886719 6.9375 -1.828125 7.15625 -1.589844 C 7.484375 -1.214844 7.28125 -0.511719 6.679688 -0.511719 C 5.429688 -0.511719 4.769531 -3.28125 3.417969 -3.554688 C 4.722656 -3.882812 6.167969 -5.132812 6.507812 -6.554688 L 6.507812 -6.542969 C 6.597656 -6.847656 6.835938 -6.917969 7.210938 -6.984375 C 7.324219 -7.007812 7.324219 -7.175781 7.199219 -7.175781 L 5.066406 -7.175781 C 4.953125 -7.175781 4.953125 -7.007812 5.054688 -6.984375 C 5.441406 -6.917969 5.757812 -6.917969 5.644531 -6.417969 C 5.234375 -5.109375 3.894531 -3.703125 2.5 -3.703125 C 2.328125 -3.703125 2.394531 -3.714844 2.226562 -3.738281 C 2.03125 -3.757812 2.03125 -3.429688 2.238281 -3.453125 C 3.703125 -3.382812 4.714844 0.0664062 6.234375 0.0664062 C 7.222656 0.0664062 7.597656 -0.714844 7.597656 -1.511719 C 7.609375 -1.851562 7.621094 -2.519531 7.121094 -2.519531 Z M 2.578125 -0.238281 C 2.203125 -0.304688 1.875 -0.214844 1.875 -0.804688 L 1.875 -6.417969 C 1.875 -7.019531 2.203125 -6.917969 2.578125 -6.984375 C 2.691406 -7.007812 2.691406 -7.175781 2.566406 -7.175781 L 0.328125 -7.175781 C 0.214844 -7.175781 0.203125 -7.007812 0.316406 -6.984375 C 0.703125 -6.917969 1.035156 -7.019531 1.035156 -6.417969 L 1.035156 -0.804688 C 1.035156 -0.214844 0.703125 -0.304688 0.316406 -0.238281 C 0.203125 -0.226562 0.214844 -0.0585938 0.328125 -0.0585938 L 2.566406 -0.0585938 C 2.691406 -0.0585938 2.691406 -0.226562 2.578125 -0.238281 Z M 2.578125 -0.238281 "/></g></g></g><g fill="#efb810" fill-opacity="1"><g transform="translate(63.165419, 17.118176)"><g><path d="M 2.578125 -0.238281 C 2.191406 -0.304688 1.863281 -0.214844 1.863281 -0.804688 L 1.863281 -6.417969 C 1.863281 -7.019531 2.191406 -6.917969 2.578125 -6.984375 C 2.691406 -7.007812 2.679688 -7.175781 2.566406 -7.175781 L 0.328125 -7.175781 C 0.203125 -7.175781 0.203125 -7.007812 0.316406 -6.984375 C 0.691406 -6.917969 1.023438 -7.019531 1.023438 -6.417969 L 1.023438 -0.804688 C 1.023438 -0.214844 0.691406 -0.304688 0.316406 -0.238281 C 0.203125 -0.226562 0.203125 -0.0585938 0.328125 -0.0585938 L 2.566406 -0.0585938 C 2.679688 -0.0585938 2.691406 -0.226562 2.578125 -0.238281 Z M 2.578125 -0.238281 "/></g></g></g></svg>