<svg xmlns="http://www.w3.org/2000/svg" xmlns:xlink="http://www.w3.org/1999/xlink" width="1024" zoomAndPan="magnify" viewBox="0 0 768 326.250004" height="435" preserveAspectRatio="xMidYMid meet" version="1.0"><defs><g/><clipPath id="6e199a4f64"><path d="M 12.554688 41.703125 L 229.542969 41.703125 L 229.542969 251 L 12.554688 251 Z M 12.554688 41.703125 " clip-rule="nonzero"/></clipPath><clipPath id="fe0464ca22"><path d="M 94 230 L 148 230 L 148 283.796875 L 94 283.796875 Z M 94 230 " clip-rule="nonzero"/></clipPath><clipPath id="21d1307a57"><path d="M 63.71875 117.773438 L 178.207031 117.773438 L 178.207031 224 L 63.71875 224 Z M 63.71875 117.773438 " clip-rule="nonzero"/></clipPath><clipPath id="be72320b23"><path d="M 112.261719 80.125 L 129.472656 80.125 L 129.472656 103.320312 L 112.261719 103.320312 Z M 112.261719 80.125 " clip-rule="nonzero"/></clipPath><clipPath id="7683881cd6"><path d="M 169.585938 114.320312 L 186.796875 114.320312 L 186.796875 137.519531 L 169.585938 137.519531 Z M 169.585938 114.320312 " clip-rule="nonzero"/></clipPath><clipPath id="407dfa6416"><path d="M 54.9375 114.320312 L 72.148438 114.320312 L 72.148438 137.519531 L 54.9375 137.519531 Z M 54.9375 114.320312 " clip-rule="nonzero"/></clipPath><clipPath id="969e807084"><path d="M 138.351562 87.347656 L 166 87.347656 L 166 115 L 138.351562 115 Z M 138.351562 87.347656 " clip-rule="nonzero"/></clipPath><clipPath id="c536aad812"><path d="M 141 112 L 153 112 L 153 123.261719 L 141 123.261719 Z M 141 112 " clip-rule="nonzero"/></clipPath><clipPath id="d0bd9fb1ea"><path d="M 160 104 L 166.789062 104 L 166.789062 111.820312 L 160 111.820312 Z M 160 104 " clip-rule="nonzero"/></clipPath><clipPath id="769a0773b2"><path d="M 76 87.347656 L 103.625 87.347656 L 103.625 115 L 76 115 Z M 76 87.347656 " clip-rule="nonzero"/></clipPath><clipPath id="cd5166f8d2"><path d="M 89 112 L 101 112 L 101 123.261719 L 89 123.261719 Z M 89 112 " clip-rule="nonzero"/></clipPath><clipPath id="3f20e1bf71"><path d="M 75.292969 104 L 82.667969 104 L 82.667969 111.820312 L 75.292969 111.820312 Z M 75.292969 104 " clip-rule="nonzero"/></clipPath></defs><g clip-path="url(#6e199a4f64)"><path fill="#efb810" d="M 121.046875 41.433594 C 92.066406 41.433594 64.824219 52.734375 44.332031 73.25 C 23.839844 93.769531 12.554688 121.046875 12.554688 150.066406 C 12.554688 172.128906 19.125 193.367188 31.550781 211.488281 C 43.683594 229.183594 60.5625 242.777344 80.363281 250.800781 L 81.644531 247.628906 C 41.75 231.457031 15.972656 193.164062 15.972656 150.066406 C 15.972656 92.050781 63.109375 44.855469 121.046875 44.855469 C 178.988281 44.855469 226.125 92.050781 226.125 150.066406 C 226.125 190.929688 202.179688 228.429688 165.125 245.597656 L 166.5625 248.703125 C 185.097656 240.113281 200.808594 226.496094 211.992188 209.320312 C 223.472656 191.691406 229.539062 171.203125 229.539062 150.066406 C 229.539062 121.046875 218.253906 93.769531 197.765625 73.25 C 177.273438 52.734375 150.027344 41.433594 121.046875 41.433594 " fill-opacity="1" fill-rule="nonzero"/></g><g clip-path="url(#fe0464ca22)"><path fill="#efb810" d="M 104.058594 256.984375 C 111.925781 254.113281 118.179688 247.851562 121.046875 239.976562 C 123.917969 247.851562 130.171875 254.113281 138.035156 256.984375 C 130.171875 259.859375 123.917969 266.121094 121.046875 273.996094 C 118.179688 266.121094 111.925781 259.859375 104.058594 256.984375 Z M 122.757812 230.253906 L 119.339844 230.253906 C 119.339844 244.050781 108.132812 255.273438 94.351562 255.273438 L 94.351562 258.695312 C 108.132812 258.695312 119.339844 269.921875 119.339844 283.714844 L 122.757812 283.714844 C 122.757812 269.921875 133.96875 258.695312 147.746094 258.695312 L 147.746094 255.273438 C 133.96875 255.273438 122.757812 244.050781 122.757812 230.253906 " fill-opacity="1" fill-rule="nonzero"/></g><g clip-path="url(#21d1307a57)"><path fill="#fa6611" d="M 140.730469 181.316406 C 129.773438 161.605469 123.113281 139.941406 120.945312 117.824219 C 118.796875 139.941406 112.152344 161.605469 101.195312 181.316406 C 92.789062 170.414062 80.011719 156.84375 63.71875 146.429688 C 78.402344 173.621094 81.6875 198.636719 83.277344 212.1875 C 88.363281 206.726562 97.035156 194.867188 101.527344 187.367188 C 109.550781 198.496094 116.121094 210.773438 120.964844 223.980469 C 125.789062 210.773438 132.375 198.476562 140.398438 187.367188 C 144.890625 194.851562 153.5625 206.726562 158.648438 212.1875 C 160.238281 198.636719 163.523438 173.621094 178.207031 146.429688 C 161.917969 156.84375 149.140625 170.414062 140.730469 181.316406 Z M 85.832031 204.148438 C 84.011719 187.839844 79.695312 172.070312 73.019531 157.347656 C 82.859375 165.25 91.722656 174.355469 99.394531 184.472656 C 95.390625 191.308594 90.882812 197.886719 85.832031 204.148438 Z M 120.964844 215.082031 C 116.3125 204.164062 110.386719 193.769531 103.378906 184.210938 C 111.402344 170.132812 117.34375 154.871094 120.964844 138.824219 C 120.964844 138.824219 120.964844 138.808594 120.980469 138.808594 C 120.980469 138.808594 120.980469 138.824219 121 138.824219 C 124.617188 154.871094 130.558594 170.132812 138.582031 184.210938 C 131.539062 193.769531 125.628906 204.183594 120.964844 215.082031 Z M 156.097656 204.148438 C 151.042969 197.886719 146.535156 191.308594 142.53125 184.472656 C 150.207031 174.355469 159.066406 165.25 168.90625 157.347656 C 162.25 172.070312 157.914062 187.839844 156.097656 204.148438 Z M 156.097656 204.148438 " fill-opacity="1" fill-rule="nonzero"/></g><g clip-path="url(#be72320b23)"><path fill="#fa6611" d="M 120.867188 80.125 C 118 83.027344 115.128906 85.925781 112.261719 88.824219 C 115.128906 93.65625 118 98.488281 120.867188 103.320312 C 123.734375 98.488281 126.601562 93.65625 129.472656 88.824219 C 126.601562 85.925781 123.734375 83.027344 120.867188 80.125 Z M 120.867188 80.125 " fill-opacity="1" fill-rule="nonzero"/></g><g clip-path="url(#7683881cd6)"><path fill="#fa6611" d="M 178.191406 114.324219 C 175.320312 117.222656 172.453125 120.121094 169.585938 123.019531 C 172.453125 127.851562 175.320312 132.683594 178.191406 137.515625 C 181.058594 132.683594 183.925781 127.851562 186.796875 123.019531 C 183.925781 120.121094 181.058594 117.222656 178.191406 114.324219 Z M 178.191406 114.324219 " fill-opacity="1" fill-rule="nonzero"/></g><g clip-path="url(#407dfa6416)"><path fill="#fa6611" d="M 63.542969 114.324219 C 60.675781 117.222656 57.804688 120.121094 54.9375 123.019531 C 57.804688 127.851562 60.675781 132.683594 63.542969 137.515625 C 66.410156 132.683594 69.28125 127.851562 72.148438 123.019531 C 69.28125 120.121094 66.410156 117.222656 63.542969 114.324219 Z M 63.542969 114.324219 " fill-opacity="1" fill-rule="nonzero"/></g><g clip-path="url(#969e807084)"><path fill="#efb810" d="M 165.714844 101.007812 C 153.988281 99.933594 153.117188 99.066406 152.035156 87.382812 C 150.953125 99.066406 150.082031 99.933594 138.351562 101.007812 C 150.082031 102.078125 150.953125 102.957031 152.035156 114.636719 C 153.117188 102.957031 153.988281 102.078125 165.714844 101.007812 " fill-opacity="1" fill-rule="nonzero"/></g><g clip-path="url(#c536aad812)"><path fill="#efb810" d="M 147.199219 112.835938 C 146.789062 117.285156 146.453125 117.617188 141.988281 118.027344 C 146.453125 118.433594 146.789062 118.777344 147.199219 123.226562 C 147.605469 118.773438 147.941406 118.433594 152.410156 118.027344 C 147.941406 117.617188 147.605469 117.285156 147.199219 112.835938 " fill-opacity="1" fill-rule="nonzero"/></g><g clip-path="url(#d0bd9fb1ea)"><path fill="#efb810" d="M 163.402344 111.101562 C 163.671875 108.210938 163.890625 107.996094 166.792969 107.722656 C 163.890625 107.460938 163.671875 107.246094 163.402344 104.355469 C 163.136719 107.246094 162.917969 107.460938 160.015625 107.722656 C 162.917969 107.996094 163.136719 108.210938 163.402344 111.101562 " fill-opacity="1" fill-rule="nonzero"/></g><g clip-path="url(#769a0773b2)"><path fill="#efb810" d="M 76.367188 101.007812 C 88.09375 99.933594 88.96875 99.066406 90.046875 87.382812 C 91.128906 99.066406 92 99.933594 103.730469 101.007812 C 92 102.078125 91.128906 102.957031 90.046875 114.636719 C 88.96875 102.957031 88.09375 102.078125 76.367188 101.007812 " fill-opacity="1" fill-rule="nonzero"/></g><g clip-path="url(#cd5166f8d2)"><path fill="#efb810" d="M 94.882812 112.835938 C 95.292969 117.285156 95.628906 117.617188 100.09375 118.027344 C 95.628906 118.433594 95.292969 118.777344 94.882812 123.226562 C 94.476562 118.773438 94.140625 118.433594 89.671875 118.027344 C 94.140625 117.617188 94.476562 117.285156 94.882812 112.835938 " fill-opacity="1" fill-rule="nonzero"/></g><g clip-path="url(#3f20e1bf71)"><path fill="#efb810" d="M 78.679688 111.101562 C 78.410156 108.210938 78.191406 107.996094 75.289062 107.722656 C 78.191406 107.460938 78.410156 107.246094 78.679688 104.355469 C 78.945312 107.246094 79.164062 107.460938 82.066406 107.722656 C 79.164062 107.996094 78.945312 108.210938 78.679688 111.101562 " fill-opacity="1" fill-rule="nonzero"/></g><g fill="#efb810" fill-opacity="1"><g transform="translate(262.278391, 191.507181)"><g><path d="M 34.59375 -46.917969 C 18.113281 -50.441406 14.84375 -56.351562 14.84375 -62.644531 C 14.84375 -73.460938 25.15625 -77.738281 36.226562 -77.738281 C 40.753906 -77.738281 45.285156 -77.109375 49.308594 -75.851562 C 57.109375 -72.832031 55.597656 -68.804688 57.609375 -65.410156 C 58.617188 -63.648438 60.125 -63.019531 61.382812 -63.019531 C 64.402344 -63.019531 66.792969 -66.667969 63.273438 -70.820312 C 62.140625 -72.203125 60.253906 -73.585938 58.113281 -74.96875 L 57.863281 -74.96875 C 55.722656 -76.226562 53.710938 -77.109375 51.949219 -77.613281 C 46.917969 -79.371094 41.257812 -80.378906 35.597656 -80.378906 C 20.628906 -80.378906 6.039062 -73.835938 6.039062 -58.238281 C 6.039062 -40.628906 28.300781 -38.742188 44.527344 -34.84375 C 73.835938 -27.925781 61.007812 -1.886719 36.605469 -1.257812 C 26.917969 -1.007812 13.835938 -5.03125 7.171875 -14.464844 C 6.414062 -15.472656 5.660156 -15.847656 4.90625 -15.847656 C 3.019531 -15.847656 1.507812 -13.460938 3.773438 -11.195312 C 14.214844 -1.636719 24.527344 1.507812 38.367188 1.507812 C 54.96875 1.507812 70.945312 -5.28125 70.945312 -21.761719 C 70.945312 -40.253906 50.566406 -43.648438 34.59375 -46.917969 Z M 34.59375 -46.917969 "/></g></g></g><g fill="#efb810" fill-opacity="1"><g transform="translate(335.738885, 191.507181)"><g><path d="M 85.160156 -2.640625 C 80.882812 -3.394531 77.234375 -2.390625 77.234375 -8.929688 L 77.234375 -71.070312 C 77.234375 -77.738281 80.882812 -76.605469 85.160156 -77.359375 C 86.417969 -77.613281 86.289062 -79.5 85.03125 -79.5 L 60.253906 -79.5 C 58.867188 -79.5 58.867188 -77.613281 60.125 -77.359375 C 64.277344 -76.605469 67.925781 -77.738281 67.925781 -71.070312 L 67.925781 -43.019531 L 20.628906 -43.019531 L 20.628906 -71.070312 C 20.628906 -77.738281 24.277344 -76.605469 28.554688 -77.359375 C 29.8125 -77.613281 29.6875 -79.5 28.429688 -79.5 L 3.648438 -79.5 C 2.265625 -79.5 2.265625 -77.613281 3.523438 -77.359375 C 7.671875 -76.605469 11.320312 -77.738281 11.320312 -71.070312 L 11.320312 -8.929688 C 11.320312 -2.390625 7.671875 -3.394531 3.523438 -2.640625 C 2.265625 -2.515625 2.265625 -0.628906 3.648438 -0.628906 L 28.429688 -0.628906 C 29.6875 -0.628906 29.8125 -2.515625 28.554688 -2.640625 C 24.277344 -3.394531 20.628906 -2.390625 20.628906 -8.929688 L 20.628906 -40.125 L 67.925781 -40.125 L 67.925781 -8.929688 C 67.925781 -2.390625 64.277344 -3.394531 60.125 -2.640625 C 58.867188 -2.515625 58.867188 -0.628906 60.253906 -0.628906 L 85.03125 -0.628906 C 86.289062 -0.628906 86.417969 -2.515625 85.160156 -2.640625 Z M 85.160156 -2.640625 "/></g></g></g><g fill="#efb810" fill-opacity="1"><g transform="translate(424.419793, 191.507181)"><g><path d="M 78.871094 -27.925781 C 76.984375 -27.925781 74.84375 -26.289062 74.84375 -23.648438 C 74.84375 -20.882812 76.855469 -20.25 79.246094 -17.609375 C 82.894531 -13.460938 80.628906 -5.660156 73.964844 -5.660156 C 60.125 -5.660156 52.832031 -36.351562 37.863281 -39.371094 C 52.328125 -43.019531 68.304688 -56.855469 72.078125 -72.578125 L 72.078125 -72.453125 C 73.082031 -75.851562 75.726562 -76.605469 79.875 -77.359375 C 81.132812 -77.613281 81.132812 -79.5 79.75 -79.5 L 56.101562 -79.5 C 54.84375 -79.5 54.84375 -77.613281 55.976562 -77.359375 C 60.253906 -76.605469 63.773438 -76.605469 62.515625 -71.070312 C 57.988281 -56.605469 43.144531 -41.007812 27.671875 -41.007812 C 25.785156 -41.007812 26.542969 -41.132812 24.65625 -41.382812 C 22.515625 -41.636719 22.515625 -37.988281 24.78125 -38.238281 C 41.007812 -37.484375 52.203125 0.753906 69.058594 0.753906 C 80 0.753906 84.152344 -7.925781 84.152344 -16.730469 C 84.277344 -20.503906 84.402344 -27.925781 78.871094 -27.925781 Z M 28.554688 -2.640625 C 24.402344 -3.394531 20.753906 -2.390625 20.753906 -8.929688 L 20.753906 -71.070312 C 20.753906 -77.738281 24.402344 -76.605469 28.554688 -77.359375 C 29.8125 -77.613281 29.8125 -79.5 28.429688 -79.5 L 3.648438 -79.5 C 2.390625 -79.5 2.265625 -77.613281 3.523438 -77.359375 C 7.800781 -76.605469 11.445312 -77.738281 11.445312 -71.070312 L 11.445312 -8.929688 C 11.445312 -2.390625 7.800781 -3.394531 3.523438 -2.640625 C 2.265625 -2.515625 2.390625 -0.628906 3.648438 -0.628906 L 28.429688 -0.628906 C 29.8125 -0.628906 29.8125 -2.515625 28.554688 -2.640625 Z M 28.554688 -2.640625 "/></g></g></g><g fill="#efb810" fill-opacity="1"><g transform="translate(511.213857, 191.507181)"><g><path d="M 89.9375 -2.011719 C 85.789062 -2.640625 82.015625 -1.761719 79.371094 -7.296875 L 49.058594 -79.5 C 44.65625 -80.378906 43.898438 -78.742188 42.265625 -74.84375 C 32.957031 -52.578125 23.648438 -30.316406 14.339844 -8.050781 C 11.699219 -1.636719 7.800781 -2.640625 3.523438 -2.011719 C 2.265625 -1.761719 2.390625 -0.503906 3.648438 -0.503906 C 6.917969 -0.503906 9.183594 -0.503906 11.824219 -0.503906 L 11.824219 -0.628906 L 14.71875 -0.628906 L 14.71875 -0.503906 C 17.484375 -0.503906 22.515625 -0.503906 25.785156 -0.503906 C 27.042969 -0.503906 27.171875 -1.761719 25.914062 -2.011719 C 21.761719 -2.640625 15.347656 -1.761719 17.609375 -7.296875 L 22.390625 -18.867188 L 64.027344 -18.867188 C 65.660156 -14.96875 67.296875 -11.195312 68.804688 -7.296875 C 71.070312 -1.761719 66.792969 -2.640625 62.644531 -2.011719 C 61.382812 -1.761719 61.382812 -0.503906 62.769531 -0.503906 C 66.039062 -0.503906 68.933594 -0.503906 71.699219 -0.503906 L 71.699219 -0.628906 L 81.511719 -0.628906 L 81.511719 -0.503906 C 84.277344 -0.503906 86.542969 -0.503906 89.8125 -0.503906 C 91.070312 -0.503906 91.070312 -1.761719 89.9375 -2.011719 Z M 23.648438 -21.636719 L 41.886719 -65.03125 C 42.640625 -66.917969 43.523438 -66.917969 44.402344 -65.03125 C 50.441406 -50.566406 56.605469 -36.101562 62.769531 -21.636719 Z M 23.648438 -21.636719 "/></g></g></g><g fill="#efb810" fill-opacity="1"><g transform="translate(604.548931, 191.507181)"><g><path d="M 78.871094 -27.925781 C 76.984375 -27.925781 74.84375 -26.289062 74.84375 -23.648438 C 74.84375 -20.882812 76.855469 -20.25 79.246094 -17.609375 C 82.894531 -13.460938 80.628906 -5.660156 73.964844 -5.660156 C 60.125 -5.660156 52.832031 -36.351562 37.863281 -39.371094 C 52.328125 -43.019531 68.304688 -56.855469 72.078125 -72.578125 L 72.078125 -72.453125 C 73.082031 -75.851562 75.726562 -76.605469 79.875 -77.359375 C 81.132812 -77.613281 81.132812 -79.5 79.75 -79.5 L 56.101562 -79.5 C 54.84375 -79.5 54.84375 -77.613281 55.976562 -77.359375 C 60.253906 -76.605469 63.773438 -76.605469 62.515625 -71.070312 C 57.988281 -56.605469 43.144531 -41.007812 27.671875 -41.007812 C 25.785156 -41.007812 26.542969 -41.132812 24.65625 -41.382812 C 22.515625 -41.636719 22.515625 -37.988281 24.78125 -38.238281 C 41.007812 -37.484375 52.203125 0.753906 69.058594 0.753906 C 80 0.753906 84.152344 -7.925781 84.152344 -16.730469 C 84.277344 -20.503906 84.402344 -27.925781 78.871094 -27.925781 Z M 28.554688 -2.640625 C 24.402344 -3.394531 20.753906 -2.390625 20.753906 -8.929688 L 20.753906 -71.070312 C 20.753906 -77.738281 24.402344 -76.605469 28.554688 -77.359375 C 29.8125 -77.613281 29.8125 -79.5 28.429688 -79.5 L 3.648438 -79.5 C 2.390625 -79.5 2.265625 -77.613281 3.523438 -77.359375 C 7.800781 -76.605469 11.445312 -77.738281 11.445312 -71.070312 L 11.445312 -8.929688 C 11.445312 -2.390625 7.800781 -3.394531 3.523438 -2.640625 C 2.265625 -2.515625 2.390625 -0.628906 3.648438 -0.628906 L 28.429688 -0.628906 C 29.8125 -0.628906 29.8125 -2.515625 28.554688 -2.640625 Z M 28.554688 -2.640625 "/></g></g></g><g fill="#efb810" fill-opacity="1"><g transform="translate(691.343008, 191.507181)"><g><path d="M 28.554688 -2.640625 C 24.277344 -3.394531 20.628906 -2.390625 20.628906 -8.929688 L 20.628906 -71.070312 C 20.628906 -77.738281 24.277344 -76.605469 28.554688 -77.359375 C 29.8125 -77.613281 29.6875 -79.5 28.429688 -79.5 L 3.648438 -79.5 C 2.265625 -79.5 2.265625 -77.613281 3.523438 -77.359375 C 7.671875 -76.605469 11.320312 -77.738281 11.320312 -71.070312 L 11.320312 -8.929688 C 11.320312 -2.390625 7.671875 -3.394531 3.523438 -2.640625 C 2.265625 -2.515625 2.265625 -0.628906 3.648438 -0.628906 L 28.429688 -0.628906 C 29.6875 -0.628906 29.8125 -2.515625 28.554688 -2.640625 Z M 28.554688 -2.640625 "/></g></g></g></svg>