<svg xmlns="http://www.w3.org/2000/svg" xmlns:xlink="http://www.w3.org/1999/xlink" width="90" zoomAndPan="magnify" viewBox="0 0 67.5 67.499996" height="90" preserveAspectRatio="xMidYMid meet" version="1.0"><defs><clipPath id="edefafec4d"><path d="M 1.824219 1.824219 L 65.574219 1.824219 L 65.574219 65.574219 L 1.824219 65.574219 Z M 1.824219 1.824219 " clip-rule="nonzero"/></clipPath></defs><g clip-path="url(#edefafec4d)"><path fill="#fb5f11" d="M 33.699219 1.824219 C 16.105469 1.824219 1.824219 16.105469 1.824219 33.699219 C 1.824219 51.296875 16.105469 65.574219 33.699219 65.574219 C 51.296875 65.574219 65.574219 51.296875 65.574219 33.699219 C 65.574219 16.105469 51.296875 1.824219 33.699219 1.824219 Z M 33.699219 63.109375 C 17.464844 63.109375 4.25 49.894531 4.25 33.699219 C 4.25 17.507812 17.464844 4.289062 33.699219 4.289062 C 49.9375 4.289062 63.152344 17.507812 63.152344 33.699219 C 63.152344 49.894531 49.9375 63.109375 33.699219 63.109375 Z M 33.699219 63.109375 " fill-opacity="1" fill-rule="nonzero"/></g><path fill="#fb5f11" d="M 16.191406 18.953125 L 16.828125 18.953125 L 16.828125 21.121094 L 16.191406 21.121094 Z M 16.191406 18.953125 " fill-opacity="1" fill-rule="nonzero"/><path fill="#fb5f11" d="M 17.59375 18.953125 L 18.230469 18.953125 L 18.230469 21.121094 L 17.59375 21.121094 Z M 17.59375 18.953125 " fill-opacity="1" fill-rule="nonzero"/><path fill="#fb5f11" d="M 14.191406 20.015625 C 14.191406 20.609375 14.660156 21.121094 15.296875 21.121094 L 15.425781 21.121094 L 15.425781 18.953125 L 15.253906 18.953125 C 14.660156 18.953125 14.191406 19.421875 14.191406 20.015625 Z M 14.191406 20.015625 " fill-opacity="1" fill-rule="nonzero"/><path fill="#fb5f11" d="M 30.214844 45.8125 L 36.847656 39.523438 L 48.277344 38.332031 C 49.296875 38.25 50.0625 37.355469 50.0625 36.335938 L 50.0625 31.277344 C 49.597656 31.40625 49.128906 31.535156 48.617188 31.574219 L 48.617188 33.019531 L 44.664062 33.191406 L 44.496094 30.683594 L 44.625 30.683594 C 43.941406 30.300781 43.390625 29.789062 42.878906 29.238281 L 38.757812 29.195312 L 38.332031 26.433594 L 41.4375 26.601562 C 41.308594 26.136719 41.222656 25.667969 41.222656 25.160156 L 25.5 24.308594 L 23.839844 19.335938 L 18.996094 19.335938 L 18.996094 20.78125 L 22.820312 20.78125 C 24.777344 26.6875 26.730469 32.597656 28.6875 38.503906 C 29.027344 39.566406 30.089844 40.246094 31.191406 40.117188 L 33.871094 39.820312 L 28.21875 45.21875 C 27.285156 46.066406 27.921875 47.640625 29.152344 47.640625 L 50.871094 47.640625 L 49 45.855469 L 30.214844 45.855469 Z M 48.617188 34.421875 L 48.617188 35.0625 C 48.617188 36.082031 47.851562 36.929688 46.832031 37.058594 L 44.964844 37.269531 L 44.792969 34.679688 Z M 43.347656 34.679688 L 43.519531 37.355469 L 40.035156 37.738281 L 39.609375 34.847656 Z M 43.050781 30.640625 L 43.222656 33.234375 L 39.351562 33.402344 L 38.929688 30.597656 Z M 38.589844 37.910156 L 37.101562 38.078125 L 35.570312 38.25 L 35.230469 38.289062 L 34.421875 35.144531 L 38.164062 34.976562 Z M 36.929688 26.347656 L 37.355469 29.195312 L 32.851562 29.109375 L 32.042969 26.09375 Z M 26.007812 25.753906 L 30.597656 26.007812 L 31.40625 29.109375 L 27.113281 29.066406 Z M 27.582031 30.511719 L 31.789062 30.554688 L 32.636719 33.785156 L 28.726562 33.957031 Z M 32.214844 38.546875 C 31.109375 38.671875 30.046875 37.992188 29.707031 36.929688 L 29.195312 35.359375 L 33.019531 35.1875 L 33.871094 38.375 Z M 33.234375 30.554688 L 37.527344 30.597656 L 37.949219 33.488281 L 34.039062 33.660156 Z M 33.234375 30.554688 " fill-opacity="1" fill-rule="nonzero"/><path fill="#fb5f11" d="M 32.597656 49 C 30.851562 49 29.492188 50.402344 29.492188 52.101562 C 29.492188 53.847656 30.894531 55.207031 32.597656 55.207031 C 34.339844 55.207031 35.699219 53.804688 35.699219 52.101562 C 35.699219 50.402344 34.296875 49 32.597656 49 Z M 32.597656 53.675781 C 31.746094 53.675781 31.066406 52.996094 31.066406 52.144531 C 31.066406 51.296875 31.746094 50.617188 32.597656 50.617188 C 33.445312 50.617188 34.125 51.296875 34.125 52.144531 C 34.125 52.996094 33.445312 53.675781 32.597656 53.675781 Z M 32.597656 53.675781 " fill-opacity="1" fill-rule="nonzero"/><path fill="#fb5f11" d="M 44.582031 49 C 42.839844 49 41.476562 50.402344 41.476562 52.101562 C 41.476562 53.847656 42.878906 55.207031 44.582031 55.207031 C 46.324219 55.207031 47.683594 53.804688 47.683594 52.101562 C 47.683594 50.402344 46.28125 49 44.582031 49 Z M 44.582031 53.675781 C 43.730469 53.675781 43.050781 52.996094 43.050781 52.144531 C 43.050781 51.296875 43.730469 50.617188 44.582031 50.617188 C 45.429688 50.617188 46.109375 51.296875 46.109375 52.144531 C 46.109375 52.996094 45.429688 53.675781 44.582031 53.675781 Z M 44.582031 53.675781 " fill-opacity="1" fill-rule="nonzero"/><path fill="#fb5f11" d="M 48.023438 19.589844 C 45.175781 19.589844 42.839844 21.929688 42.839844 24.777344 C 42.839844 27.625 45.175781 29.960938 48.023438 29.960938 C 50.871094 29.960938 53.207031 27.625 53.207031 24.777344 C 53.207031 21.929688 50.914062 19.589844 48.023438 19.589844 Z M 51.125 22.949219 C 50.871094 23.332031 50.617188 23.671875 50.402344 24.054688 C 49.636719 25.160156 48.875 26.347656 48.109375 27.496094 C 47.9375 27.75 47.683594 27.921875 47.386719 27.921875 C 47.089844 27.921875 46.832031 27.75 46.664062 27.496094 C 46.324219 27.027344 45.984375 26.519531 45.644531 26.050781 L 45.644531 26.007812 C 45.515625 25.839844 45.386719 25.667969 45.304688 25.5 C 45.046875 25.117188 45.21875 24.859375 45.347656 24.777344 C 45.558594 24.5625 45.8125 24.605469 46.066406 24.816406 L 47.300781 25.839844 L 47.894531 25.160156 C 48.40625 24.5625 48.957031 23.96875 49.46875 23.375 C 49.636719 23.203125 49.808594 22.992188 49.976562 22.820312 L 50.019531 22.734375 C 50.148438 22.609375 50.277344 22.480469 50.359375 22.351562 C 50.617188 22.054688 50.871094 22.140625 51.039062 22.226562 C 51.253906 22.394531 51.296875 22.652344 51.125 22.949219 Z M 51.125 22.949219 " fill-opacity="1" fill-rule="nonzero"/></svg>