<svg xmlns="http://www.w3.org/2000/svg" xmlns:xlink="http://www.w3.org/1999/xlink" width="95" zoomAndPan="magnify" viewBox="0 0 71.25 30.000001" height="40" preserveAspectRatio="xMidYMid meet" version="1.0"><defs><clipPath id="5f02488f72"><path d="M 14.925781 0 L 55.570312 0 L 55.570312 29.03125 L 14.925781 29.03125 Z M 14.925781 0 " clip-rule="nonzero"/></clipPath></defs><g clip-path="url(#5f02488f72)"><path fill="#be9a2f" d="M 19.289062 0 C 16.882812 0 14.9375 1.945312 14.9375 4.355469 C 14.988281 10.957031 14.9375 17.949219 14.9375 24.675781 C 14.9375 26.996094 16.738281 28.871094 19.015625 29.007812 L 51.386719 29.03125 C 53.707031 28.9375 55.558594 27.027344 55.558594 24.675781 L 55.558594 3.605469 C 55.207031 1.554688 53.425781 0 51.273438 0 C 40.617188 0.00390625 29.949219 0 19.289062 0 Z M 19.21875 2.289062 L 51.410156 2.289062 L 35.835938 17.875 C 35.550781 18.15625 35.101562 18.15625 34.816406 17.875 Z M 53.382812 3.402344 L 53.382812 24.519531 C 53.382812 25.777344 52.929688 26.488281 52.023438 26.742188 L 41.050781 15.742188 Z M 17.363281 3.492188 L 29.488281 15.628906 L 18.40625 26.71875 C 17.644531 26.460938 17.382812 25.851562 17.363281 25.015625 Z M 31.03125 17.148438 L 34.816406 20.957031 C 35.101562 21.242188 35.550781 21.242188 35.835938 20.957031 L 39.507812 17.28125 L 49.074219 26.855469 L 21.328125 26.855469 Z M 31.03125 17.148438 " fill-opacity="1" fill-rule="nonzero"/></g></svg>