<svg xmlns="http://www.w3.org/2000/svg" xmlns:xlink="http://www.w3.org/1999/xlink" width="116" zoomAndPan="magnify" viewBox="0 0 87 67.499998" height="90" preserveAspectRatio="xMidYMid meet" version="1.0"><defs><clipPath id="7b10f2a155"><path d="M 0.46875 2.734375 L 86.679688 2.734375 L 86.679688 64.527344 L 0.46875 64.527344 Z M 0.46875 2.734375 " clip-rule="nonzero"/></clipPath></defs><g clip-path="url(#7b10f2a155)"><path fill="#fb5f11" d="M 9.75 2.734375 C 4.644531 2.734375 0.503906 6.878906 0.503906 12.003906 C 0.617188 26.058594 0.503906 40.933594 0.503906 55.257812 C 0.503906 60.191406 4.332031 64.183594 9.171875 64.480469 L 77.929688 64.527344 C 82.859375 64.328125 86.789062 60.253906 86.789062 55.257812 L 86.789062 10.410156 C 86.042969 6.039062 82.257812 2.734375 77.691406 2.734375 C 55.054688 2.746094 32.394531 2.734375 9.75 2.734375 Z M 9.605469 7.609375 L 77.980469 7.609375 L 44.898438 40.777344 C 44.296875 41.382812 43.335938 41.382812 42.730469 40.777344 Z M 82.167969 9.976562 L 82.167969 54.921875 C 82.167969 57.597656 81.207031 59.109375 79.277344 59.652344 L 55.972656 36.238281 Z M 5.65625 10.167969 L 31.417969 35.996094 L 7.871094 59.601562 C 6.261719 59.058594 5.699219 57.757812 5.65625 55.980469 Z M 34.691406 39.230469 L 42.734375 47.339844 C 43.335938 47.945312 44.296875 47.945312 44.898438 47.339844 L 52.699219 39.519531 L 73.019531 59.890625 L 14.085938 59.890625 Z M 34.691406 39.230469 " fill-opacity="1" fill-rule="nonzero"/></g></svg>