<svg xmlns="http://www.w3.org/2000/svg" xmlns:xlink="http://www.w3.org/1999/xlink" width="90" zoomAndPan="magnify" viewBox="0 0 67.5 67.499996" height="90" preserveAspectRatio="xMidYMid meet" version="1.0"><defs><clipPath id="a69737657f"><path d="M 3.335938 3.335938 L 64.085938 3.335938 L 64.085938 14 L 3.335938 14 Z M 3.335938 3.335938 " clip-rule="nonzero"/></clipPath><clipPath id="8d87487dd5"><path d="M 3.335938 28 L 44 28 L 44 39 L 3.335938 39 Z M 3.335938 28 " clip-rule="nonzero"/></clipPath><clipPath id="d5c85f8557"><path d="M 3.335938 53 L 64.085938 53 L 64.085938 64.085938 L 3.335938 64.085938 Z M 3.335938 53 " clip-rule="nonzero"/></clipPath></defs><g clip-path="url(#a69737657f)"><path fill="#ffffff" d="M 3.335938 10.929688 L 3.335938 5.867188 C 3.335938 4.46875 4.46875 3.335938 5.867188 3.335938 L 61.554688 3.335938 C 62.949219 3.335938 64.085938 4.46875 64.085938 5.867188 L 64.085938 10.929688 C 64.085938 12.324219 62.949219 13.460938 61.554688 13.460938 L 5.867188 13.460938 C 4.46875 13.460938 3.335938 12.324219 3.335938 10.929688 Z M 3.335938 10.929688 " fill-opacity="1" fill-rule="nonzero"/></g><g clip-path="url(#8d87487dd5)"><path fill="#ffffff" d="M 3.335938 31.179688 C 3.335938 29.78125 4.46875 28.648438 5.867188 28.648438 L 41.304688 28.648438 C 42.699219 28.648438 43.835938 29.78125 43.835938 31.179688 L 43.835938 36.242188 C 43.835938 37.636719 42.699219 38.773438 41.304688 38.773438 L 5.867188 38.773438 C 4.46875 38.773438 3.335938 37.636719 3.335938 36.242188 Z M 3.335938 31.179688 " fill-opacity="1" fill-rule="nonzero"/></g><g clip-path="url(#d5c85f8557)"><path fill="#ffffff" d="M 3.335938 56.492188 C 3.335938 55.09375 4.46875 53.960938 5.867188 53.960938 L 61.554688 53.960938 C 62.949219 53.960938 64.085938 55.09375 64.085938 56.492188 L 64.085938 61.554688 C 64.085938 62.949219 62.949219 64.085938 61.554688 64.085938 L 5.867188 64.085938 C 4.46875 64.085938 3.335938 62.949219 3.335938 61.554688 Z M 3.335938 56.492188 " fill-opacity="1" fill-rule="nonzero"/></g></svg>