<svg xmlns="http://www.w3.org/2000/svg" xmlns:xlink="http://www.w3.org/1999/xlink" width="90" zoomAndPan="magnify" viewBox="0 0 67.5 67.499996" height="90" preserveAspectRatio="xMidYMid meet" version="1.0"><defs><clipPath id="622a89ea2e"><path d="M 3.140625 7.871094 L 57.890625 7.871094 L 57.890625 63.371094 L 3.140625 63.371094 Z M 3.140625 7.871094 " clip-rule="nonzero"/></clipPath></defs><g clip-path="url(#622a89ea2e)"><path fill="#ffffff" d="M 56.757812 29.1875 C 56.765625 29.148438 56.769531 29.109375 56.773438 29.074219 L 57.847656 21.367188 C 57.859375 21.308594 57.867188 21.242188 57.867188 21.179688 C 57.867188 20.683594 57.472656 20.28125 56.984375 20.28125 L 50.011719 20.28125 C 50.007812 20.28125 50.007812 20.28125 50.007812 20.28125 C 50.003906 20.28125 50.003906 20.28125 50.003906 20.28125 L 43.039062 20.28125 C 43.035156 20.28125 43.03125 20.28125 43.03125 20.28125 C 43.027344 20.28125 43.023438 20.28125 43.023438 20.28125 L 36.066406 20.28125 C 36.0625 20.28125 36.058594 20.28125 36.054688 20.28125 C 36.050781 20.28125 36.046875 20.28125 36.042969 20.28125 L 29.09375 20.28125 C 29.089844 20.28125 29.082031 20.28125 29.078125 20.28125 C 29.070312 20.28125 29.066406 20.28125 29.0625 20.28125 L 22.121094 20.28125 C 22.113281 20.28125 22.105469 20.28125 22.101562 20.28125 C 22.09375 20.28125 22.085938 20.28125 22.082031 20.28125 L 16.0625 20.28125 L 12.375 10.464844 C 12.269531 10.179688 12.035156 9.984375 11.769531 9.914062 L 4.363281 7.996094 C 3.890625 7.875 3.40625 8.164062 3.289062 8.644531 C 3.167969 9.125 3.453125 9.609375 3.925781 9.730469 L 10.886719 11.53125 L 15.898438 24.871094 L 20.480469 37.078125 C 20.492188 37.117188 20.507812 37.15625 20.523438 37.191406 L 21.253906 39.132812 C 21.265625 39.171875 21.28125 39.210938 21.296875 39.25 L 23.324219 44.644531 L 21.253906 46.648438 C 19.460938 48.386719 18.300781 50.046875 17.777344 51.457031 C 17.441406 52.371094 17.359375 53.207031 17.53125 53.929688 C 17.722656 54.730469 18.203125 55.363281 18.96875 55.792969 C 19.222656 55.933594 19.507812 56.050781 19.824219 56.140625 C 19.160156 56.90625 18.757812 57.910156 18.757812 59.007812 C 18.757812 60.183594 19.21875 61.25 19.96875 62.039062 L 20.019531 62.09375 C 20.800781 62.882812 21.875 63.371094 23.066406 63.371094 C 24.257812 63.371094 25.335938 62.882812 26.113281 62.09375 L 26.113281 62.089844 C 26.894531 61.300781 27.375 60.210938 27.375 59.007812 C 27.375 58.015625 27.042969 57.097656 26.488281 56.363281 L 44.90625 56.363281 C 44.382812 57.085938 44.074219 57.972656 44.074219 58.933594 C 44.074219 60.109375 44.535156 61.175781 45.285156 61.960938 L 45.335938 62.019531 C 46.117188 62.808594 47.191406 63.296875 48.382812 63.296875 C 49.574219 63.296875 50.652344 62.808594 51.429688 62.019531 L 51.429688 62.015625 C 52.210938 61.226562 52.691406 60.136719 52.691406 58.933594 C 52.691406 57.976562 52.382812 57.085938 51.863281 56.363281 L 53.503906 56.363281 C 53.992188 56.363281 54.390625 55.960938 54.390625 55.46875 C 54.390625 54.972656 53.992188 54.570312 53.503906 54.570312 C 53.503906 54.570312 21.589844 54.570312 21.589844 54.570312 C 20.808594 54.570312 20.222656 54.449219 19.820312 54.222656 C 19.511719 54.050781 19.320312 53.808594 19.25 53.507812 C 19.160156 53.136719 19.222656 52.652344 19.433594 52.078125 C 19.863281 50.910156 20.878906 49.484375 22.480469 47.933594 L 24.746094 45.734375 L 29.105469 45.296875 C 29.144531 45.292969 29.1875 45.289062 29.226562 45.285156 L 36.085938 44.589844 C 36.125 44.589844 36.160156 44.585938 36.199219 44.578125 L 43.058594 43.886719 C 43.101562 43.886719 43.136719 43.882812 43.175781 43.875 L 50.035156 43.183594 C 50.074219 43.183594 50.113281 43.179688 50.148438 43.171875 L 54.144531 42.769531 C 54.558594 42.746094 54.90625 42.429688 54.964844 42 L 55.664062 37.007812 C 55.671875 36.972656 55.675781 36.933594 55.679688 36.890625 Z M 24.867188 60.828125 C 24.40625 61.292969 23.769531 61.578125 23.070312 61.578125 C 22.367188 61.578125 21.734375 61.292969 21.273438 60.828125 L 21.230469 60.789062 C 20.796875 60.328125 20.53125 59.699219 20.53125 59.007812 C 20.53125 58.296875 20.8125 57.65625 21.273438 57.191406 C 21.730469 56.726562 22.367188 56.441406 23.070312 56.441406 C 23.769531 56.441406 24.40625 56.726562 24.867188 57.191406 L 24.90625 57.230469 C 25.339844 57.691406 25.609375 58.316406 25.609375 59.007812 C 25.609375 59.722656 25.324219 60.367188 24.867188 60.828125 Z M 50.179688 57.117188 L 50.21875 57.15625 C 50.65625 57.617188 50.921875 58.242188 50.921875 58.933594 C 50.921875 59.648438 50.640625 60.289062 50.179688 60.75 C 49.71875 61.214844 49.082031 61.503906 48.382812 61.503906 C 47.683594 61.503906 47.046875 61.214844 46.585938 60.75 L 46.546875 60.714844 C 46.109375 60.25 45.84375 59.625 45.84375 58.933594 C 45.84375 58.222656 46.125 57.578125 46.585938 57.117188 C 47.046875 56.652344 47.683594 56.363281 48.382812 56.363281 C 49.082031 56.367188 49.71875 56.652344 50.179688 57.117188 Z M 24.941406 43.925781 L 22.988281 38.722656 L 22.988281 37.71875 L 28.191406 37.71875 L 28.191406 43.597656 Z M 42.144531 28.105469 L 36.9375 28.105469 L 36.9375 22.070312 L 42.144531 22.070312 C 42.144531 23.257812 42.144531 25.507812 42.144531 28.105469 Z M 43.914062 22.074219 L 49.121094 22.074219 L 49.121094 28.105469 L 43.914062 28.105469 Z M 36.941406 29.894531 L 42.144531 29.894531 C 42.144531 31.898438 42.144531 34.003906 42.144531 35.929688 L 36.941406 35.929688 Z M 35.167969 35.925781 L 29.964844 35.925781 L 29.964844 29.894531 L 35.167969 29.894531 Z M 35.167969 28.105469 L 29.964844 28.105469 L 29.964844 22.070312 L 35.167969 22.070312 Z M 28.191406 28.105469 L 22.988281 28.105469 L 22.988281 22.070312 L 28.191406 22.070312 Z M 28.191406 29.894531 L 28.191406 35.929688 L 22.988281 35.929688 L 22.988281 29.894531 Z M 21.21875 34.007812 L 19.671875 29.894531 L 21.21875 29.894531 Z M 29.964844 37.71875 L 35.167969 37.71875 L 35.167969 42.894531 L 29.964844 43.417969 Z M 36.941406 37.71875 L 42.144531 37.71875 C 42.144531 39.660156 42.144531 41.273438 42.144531 42.1875 L 36.941406 42.714844 Z M 43.914062 37.71875 L 49.121094 37.71875 L 49.121094 41.484375 L 43.914062 42.011719 Z M 43.914062 35.925781 L 43.914062 29.894531 L 49.121094 29.894531 L 49.121094 35.925781 Z M 50.890625 29.894531 L 54.875 29.894531 L 54.03125 35.929688 L 50.890625 35.929688 Z M 55.125 28.105469 L 50.890625 28.105469 L 50.890625 22.070312 L 55.964844 22.070312 Z M 21.21875 22.074219 L 21.21875 28.105469 L 19 28.105469 L 17.550781 24.242188 L 16.734375 22.074219 Z M 50.890625 41.304688 L 50.890625 37.71875 L 53.785156 37.71875 L 53.316406 41.058594 Z M 50.890625 41.304688 " fill-opacity="1" fill-rule="nonzero"/></g></svg>