<svg xmlns="http://www.w3.org/2000/svg" xmlns:xlink="http://www.w3.org/1999/xlink" width="90" zoomAndPan="magnify" viewBox="0 0 67.5 67.499996" height="90" preserveAspectRatio="xMidYMid meet" version="1.0"><defs><clipPath id="33d1ca60df"><path d="M 4.300781 5.957031 L 63.550781 5.957031 L 63.550781 61.457031 L 4.300781 61.457031 Z M 4.300781 5.957031 " clip-rule="nonzero"/></clipPath></defs><g clip-path="url(#33d1ca60df)"><path fill="#ffffff" d="M 24.402344 41.996094 L 59.394531 38.542969 C 59.722656 38.507812 60.003906 38.378906 60.242188 38.152344 C 60.476562 37.925781 60.617188 37.652344 60.664062 37.328125 L 63.339844 18.222656 C 63.367188 18.019531 63.351562 17.820312 63.292969 17.625 C 63.234375 17.429688 63.136719 17.253906 63.003906 17.097656 C 62.867188 16.945312 62.707031 16.824219 62.519531 16.738281 C 62.332031 16.65625 62.132812 16.613281 61.925781 16.613281 L 52.445312 16.613281 C 52.367188 15.886719 52.21875 15.175781 52.007812 14.480469 C 51.796875 13.78125 51.523438 13.109375 51.1875 12.460938 C 50.851562 11.8125 50.457031 11.199219 50.007812 10.625 C 49.558594 10.046875 49.0625 9.515625 48.515625 9.027344 C 47.96875 8.542969 47.382812 8.109375 46.753906 7.730469 C 46.128906 7.351562 45.472656 7.03125 44.785156 6.769531 C 44.097656 6.511719 43.394531 6.3125 42.671875 6.179688 C 41.949219 6.050781 41.222656 5.984375 40.488281 5.984375 C 39.753906 5.984375 39.023438 6.050781 38.304688 6.179688 C 37.582031 6.3125 36.875 6.511719 36.191406 6.769531 C 35.503906 7.03125 34.847656 7.351562 34.222656 7.730469 C 33.59375 8.109375 33.007812 8.542969 32.460938 9.027344 C 31.914062 9.515625 31.414062 10.046875 30.964844 10.625 C 30.515625 11.199219 30.125 11.8125 29.789062 12.460938 C 29.453125 13.109375 29.179688 13.78125 28.96875 14.480469 C 28.753906 15.175781 28.609375 15.886719 28.527344 16.613281 L 19.613281 16.613281 L 18.421875 11.164062 C 18.28125 10.535156 18.039062 9.945312 17.695312 9.398438 C 17.351562 8.847656 16.925781 8.371094 16.421875 7.96875 C 15.914062 7.5625 15.355469 7.25 14.742188 7.035156 C 14.128906 6.820312 13.496094 6.710938 12.847656 6.707031 L 5.859375 6.707031 C 5.671875 6.707031 5.488281 6.742188 5.316406 6.816406 C 5.140625 6.886719 4.988281 6.988281 4.851562 7.121094 C 4.71875 7.253906 4.617188 7.40625 4.542969 7.582031 C 4.472656 7.753906 4.4375 7.933594 4.4375 8.121094 C 4.4375 8.308594 4.472656 8.488281 4.542969 8.664062 C 4.617188 8.835938 4.71875 8.988281 4.851562 9.121094 C 4.988281 9.253906 5.140625 9.355469 5.316406 9.429688 C 5.488281 9.5 5.671875 9.535156 5.859375 9.539062 L 12.847656 9.539062 C 13.171875 9.539062 13.488281 9.59375 13.792969 9.703125 C 14.101562 9.808594 14.378906 9.964844 14.632812 10.167969 C 14.886719 10.371094 15.097656 10.609375 15.269531 10.882812 C 15.441406 11.15625 15.5625 11.453125 15.632812 11.765625 L 19.363281 28.789062 C 19.3125 28.886719 19.296875 28.992188 19.320312 29.101562 C 19.34375 29.214844 19.402344 29.304688 19.492188 29.371094 L 21.488281 38.492188 C 21.796875 39.910156 21.746094 41.3125 21.332031 42.703125 L 19.0625 50.324219 C 19.007812 50.519531 18.992188 50.714844 19.023438 50.917969 C 18.992188 51.019531 18.976562 51.125 18.976562 51.230469 L 18.976562 53.0625 C 18.699219 52.933594 18.414062 52.832031 18.113281 52.765625 C 17.816406 52.695312 17.515625 52.660156 17.207031 52.65625 C 16.902344 52.652344 16.597656 52.679688 16.300781 52.742188 C 16 52.804688 15.710938 52.894531 15.429688 53.019531 C 15.152344 53.140625 14.886719 53.292969 14.640625 53.472656 C 14.394531 53.652344 14.167969 53.855469 13.964844 54.082031 C 13.765625 54.308594 13.585938 54.554688 13.4375 54.820312 C 13.289062 55.085938 13.171875 55.363281 13.082031 55.652344 C 12.992188 55.945312 12.9375 56.242188 12.910156 56.542969 C 12.886719 56.847656 12.894531 57.148438 12.9375 57.449219 C 12.976562 57.75 13.050781 58.042969 13.15625 58.328125 C 13.261719 58.613281 13.394531 58.882812 13.558594 59.140625 C 13.722656 59.398438 13.914062 59.632812 14.128906 59.847656 C 14.34375 60.066406 14.578125 60.253906 14.835938 60.421875 C 15.089844 60.585938 15.363281 60.722656 15.648438 60.832031 C 15.933594 60.9375 16.230469 61.015625 16.53125 61.058594 C 16.835938 61.101562 17.136719 61.113281 17.445312 61.09375 C 17.75 61.074219 18.046875 61.019531 18.34375 60.9375 C 18.636719 60.851562 18.917969 60.738281 19.1875 60.589844 C 19.453125 60.445312 19.707031 60.273438 19.9375 60.078125 C 20.167969 59.878906 20.375 59.65625 20.558594 59.414062 C 20.742188 59.171875 20.898438 58.910156 21.027344 58.636719 C 21.152344 58.359375 21.25 58.074219 21.3125 57.777344 C 21.378906 57.480469 21.410156 57.179688 21.410156 56.875 L 21.410156 52.140625 L 54.367188 52.140625 L 54.367188 53.0625 C 54.089844 52.933594 53.800781 52.832031 53.503906 52.765625 C 53.207031 52.695312 52.902344 52.660156 52.597656 52.65625 C 52.292969 52.652344 51.988281 52.679688 51.691406 52.742188 C 51.390625 52.804688 51.101562 52.894531 50.820312 53.019531 C 50.539062 53.140625 50.277344 53.292969 50.03125 53.472656 C 49.785156 53.652344 49.558594 53.855469 49.355469 54.082031 C 49.152344 54.308594 48.976562 54.554688 48.828125 54.820312 C 48.679688 55.085938 48.558594 55.363281 48.472656 55.652344 C 48.382812 55.945312 48.324219 56.242188 48.300781 56.542969 C 48.277344 56.847656 48.285156 57.148438 48.328125 57.449219 C 48.367188 57.75 48.441406 58.042969 48.546875 58.328125 C 48.652344 58.613281 48.785156 58.882812 48.949219 59.140625 C 49.113281 59.398438 49.300781 59.632812 49.515625 59.847656 C 49.730469 60.066406 49.96875 60.253906 50.222656 60.421875 C 50.480469 60.585938 50.753906 60.722656 51.039062 60.832031 C 51.324219 60.9375 51.617188 61.015625 51.921875 61.058594 C 52.222656 61.101562 52.527344 61.113281 52.832031 61.09375 C 53.140625 61.074219 53.4375 61.019531 53.730469 60.9375 C 54.027344 60.851562 54.308594 60.738281 54.574219 60.589844 C 54.84375 60.445312 55.09375 60.273438 55.328125 60.078125 C 55.558594 59.878906 55.765625 59.65625 55.949219 59.414062 C 56.132812 59.171875 56.289062 58.910156 56.414062 58.636719 C 56.542969 58.359375 56.636719 58.074219 56.703125 57.777344 C 56.769531 57.480469 56.800781 57.179688 56.800781 56.875 L 56.800781 52.140625 L 59.25 52.140625 C 59.441406 52.140625 59.621094 52.105469 59.796875 52.03125 C 59.96875 51.960938 60.125 51.859375 60.257812 51.726562 C 60.390625 51.59375 60.492188 51.441406 60.566406 51.265625 C 60.636719 51.09375 60.675781 50.914062 60.675781 50.726562 C 60.675781 50.539062 60.636719 50.359375 60.566406 50.1875 C 60.492188 50.011719 60.390625 49.859375 60.257812 49.726562 C 60.125 49.59375 59.96875 49.492188 59.796875 49.421875 C 59.621094 49.347656 59.441406 49.3125 59.25 49.3125 L 22.339844 49.3125 L 24.066406 43.503906 C 24.214844 43.007812 24.324219 42.507812 24.402344 41.996094 Z M 34.691406 38.136719 L 31.9375 38.40625 L 31.9375 34.570312 L 34.691406 34.570312 Z M 34.691406 33.582031 L 31.9375 33.582031 L 31.9375 29.492188 L 34.691406 29.492188 Z M 34.691406 28.507812 L 31.9375 28.507812 L 31.9375 26.320312 C 32.753906 27.140625 33.671875 27.832031 34.691406 28.390625 Z M 38.441406 37.765625 L 35.6875 38.039062 L 35.6875 34.570312 L 38.441406 34.570312 Z M 38.441406 33.582031 L 35.6875 33.582031 L 35.6875 29.492188 L 37.539062 29.492188 C 37.835938 29.570312 38.136719 29.632812 38.441406 29.6875 Z M 42.191406 37.394531 L 39.4375 37.667969 L 39.4375 34.570312 L 42.191406 34.570312 Z M 42.191406 33.582031 L 39.4375 33.582031 L 39.4375 29.820312 C 39.785156 29.847656 40.132812 29.871094 40.488281 29.871094 C 41.058594 29.867188 41.628906 29.824219 42.191406 29.738281 Z M 45.945312 37.023438 L 43.1875 37.296875 L 43.1875 34.570312 L 45.945312 34.570312 Z M 45.945312 33.582031 L 43.1875 33.582031 L 43.1875 29.558594 C 43.273438 29.539062 43.355469 29.515625 43.4375 29.492188 L 45.945312 29.492188 Z M 49.695312 36.652344 L 46.9375 36.925781 L 46.9375 34.570312 L 49.695312 34.570312 Z M 49.695312 33.582031 L 46.9375 33.582031 L 46.9375 29.492188 L 49.695312 29.492188 Z M 49.695312 28.507812 L 46.9375 28.507812 L 46.9375 27.996094 C 47.980469 27.335938 48.898438 26.539062 49.695312 25.605469 Z M 58.191406 19.441406 L 60.289062 19.441406 L 59.75 23.296875 L 58.191406 23.296875 Z M 58.191406 24.285156 L 59.609375 24.285156 L 59.019531 28.507812 L 58.191406 28.507812 Z M 58.191406 29.492188 L 58.882812 29.492188 L 58.308594 33.582031 L 58.191406 33.582031 Z M 54.441406 19.441406 L 57.195312 19.441406 L 57.195312 23.296875 L 54.441406 23.296875 Z M 54.441406 24.285156 L 57.195312 24.285156 L 57.195312 28.507812 L 54.441406 28.507812 Z M 54.441406 29.492188 L 57.195312 29.492188 L 57.195312 33.582031 L 54.441406 33.582031 Z M 54.441406 34.570312 L 57.195312 34.570312 L 57.195312 35.914062 L 54.441406 36.1875 Z M 52.414062 19.441406 L 53.445312 19.441406 L 53.445312 23.296875 L 51.222656 23.296875 C 51.84375 22.082031 52.242188 20.796875 52.414062 19.441406 Z M 50.6875 24.285156 L 53.445312 24.285156 L 53.445312 28.507812 L 50.6875 28.507812 Z M 50.6875 29.492188 L 53.445312 29.492188 L 53.445312 33.582031 L 50.6875 33.582031 Z M 50.6875 34.570312 L 53.445312 34.570312 L 53.445312 36.285156 L 50.6875 36.554688 Z M 40.488281 8.617188 C 41.105469 8.617188 41.714844 8.675781 42.316406 8.796875 C 42.921875 8.914062 43.507812 9.089844 44.078125 9.324219 C 44.648438 9.558594 45.1875 9.847656 45.699219 10.183594 C 46.210938 10.523438 46.6875 10.910156 47.121094 11.34375 C 47.558594 11.777344 47.945312 12.246094 48.289062 12.753906 C 48.632812 13.261719 48.921875 13.800781 49.15625 14.363281 C 49.390625 14.929688 49.570312 15.511719 49.691406 16.109375 C 49.808594 16.710938 49.871094 17.316406 49.871094 17.925781 C 49.871094 18.539062 49.808594 19.144531 49.691406 19.742188 C 49.570312 20.34375 49.390625 20.925781 49.15625 21.492188 C 48.921875 22.054688 48.632812 22.59375 48.289062 23.101562 C 47.945312 23.609375 47.558594 24.078125 47.121094 24.511719 C 46.6875 24.945312 46.210938 25.328125 45.699219 25.667969 C 45.1875 26.007812 44.648438 26.296875 44.078125 26.53125 C 43.507812 26.765625 42.921875 26.941406 42.320312 27.058594 C 41.714844 27.179688 41.105469 27.238281 40.488281 27.238281 C 39.871094 27.238281 39.261719 27.179688 38.65625 27.058594 C 38.054688 26.941406 37.464844 26.765625 36.898438 26.53125 C 36.328125 26.296875 35.789062 26.007812 35.273438 25.667969 C 34.761719 25.328125 34.289062 24.945312 33.855469 24.511719 C 33.417969 24.078125 33.027344 23.609375 32.6875 23.101562 C 32.34375 22.59375 32.054688 22.054688 31.820312 21.492188 C 31.582031 20.925781 31.40625 20.34375 31.285156 19.742188 C 31.164062 19.144531 31.105469 18.539062 31.105469 17.925781 C 31.105469 17.316406 31.167969 16.710938 31.289062 16.113281 C 31.410156 15.511719 31.585938 14.929688 31.824219 14.367188 C 32.058594 13.800781 32.347656 13.265625 32.691406 12.757812 C 33.03125 12.25 33.421875 11.777344 33.855469 11.347656 C 34.292969 10.914062 34.765625 10.527344 35.277344 10.1875 C 35.789062 9.847656 36.332031 9.5625 36.898438 9.328125 C 37.46875 9.09375 38.054688 8.917969 38.65625 8.796875 C 39.261719 8.675781 39.871094 8.617188 40.488281 8.617188 Z M 28.183594 19.441406 L 28.558594 19.441406 C 28.734375 20.796875 29.132812 22.082031 29.753906 23.296875 L 28.183594 23.296875 Z M 28.183594 24.285156 L 30.316406 24.285156 C 30.511719 24.589844 30.71875 24.886719 30.941406 25.171875 L 30.941406 28.507812 L 28.183594 28.507812 Z M 28.183594 29.492188 L 30.941406 29.492188 L 30.941406 33.582031 L 28.183594 33.582031 Z M 28.183594 34.570312 L 30.941406 34.570312 L 30.941406 38.507812 L 28.183594 38.777344 Z M 24.433594 19.441406 L 27.191406 19.441406 L 27.191406 23.296875 L 24.433594 23.296875 Z M 24.433594 24.285156 L 27.191406 24.285156 L 27.191406 28.507812 L 24.433594 28.507812 Z M 24.433594 29.492188 L 27.191406 29.492188 L 27.191406 33.582031 L 24.433594 33.582031 Z M 24.433594 34.570312 L 27.191406 34.570312 L 27.191406 38.875 L 24.472656 39.144531 C 24.460938 39.042969 24.449219 38.9375 24.433594 38.835938 Z M 17.152344 58.6875 C 16.910156 58.6875 16.675781 58.640625 16.453125 58.550781 C 16.226562 58.457031 16.03125 58.328125 15.859375 58.15625 C 15.6875 57.988281 15.554688 57.792969 15.464844 57.570312 C 15.371094 57.347656 15.324219 57.117188 15.324219 56.875 C 15.324219 56.636719 15.371094 56.40625 15.464844 56.183594 C 15.554688 55.960938 15.6875 55.765625 15.859375 55.59375 C 16.03125 55.425781 16.226562 55.292969 16.453125 55.203125 C 16.675781 55.109375 16.90625 55.066406 17.148438 55.066406 C 17.390625 55.066406 17.625 55.109375 17.847656 55.203125 C 18.074219 55.292969 18.269531 55.425781 18.441406 55.59375 C 18.613281 55.765625 18.746094 55.960938 18.835938 56.183594 C 18.929688 56.40625 18.976562 56.636719 18.976562 56.875 C 18.976562 57.117188 18.929688 57.347656 18.835938 57.570312 C 18.742188 57.792969 18.613281 57.988281 18.441406 58.15625 C 18.269531 58.328125 18.074219 58.457031 17.847656 58.550781 C 17.625 58.640625 17.390625 58.6875 17.152344 58.6875 Z M 52.539062 58.6875 C 52.296875 58.6875 52.066406 58.640625 51.839844 58.550781 C 51.617188 58.457031 51.421875 58.328125 51.25 58.15625 C 51.078125 57.988281 50.945312 57.792969 50.851562 57.570312 C 50.761719 57.347656 50.714844 57.117188 50.714844 56.875 C 50.714844 56.636719 50.761719 56.40625 50.851562 56.183594 C 50.945312 55.960938 51.078125 55.765625 51.25 55.59375 C 51.421875 55.425781 51.617188 55.292969 51.839844 55.203125 C 52.066406 55.109375 52.296875 55.066406 52.539062 55.066406 C 52.78125 55.066406 53.015625 55.109375 53.238281 55.203125 C 53.460938 55.292969 53.660156 55.425781 53.832031 55.59375 C 54.003906 55.765625 54.132812 55.960938 54.226562 56.183594 C 54.320312 56.40625 54.367188 56.636719 54.367188 56.875 C 54.367188 57.117188 54.320312 57.347656 54.226562 57.570312 C 54.132812 57.792969 54 57.988281 53.832031 58.15625 C 53.660156 58.328125 53.460938 58.457031 53.238281 58.550781 C 53.015625 58.640625 52.78125 58.6875 52.539062 58.6875 Z M 23.441406 33.582031 L 23.332031 33.582031 L 22.4375 29.492188 L 23.441406 29.492188 Z M 23.441406 28.507812 L 22.21875 28.507812 L 21.296875 24.285156 L 23.441406 24.285156 Z M 23.441406 23.296875 L 21.078125 23.296875 L 20.234375 19.441406 L 23.441406 19.441406 Z M 23.441406 23.296875 " fill-opacity="1" fill-rule="nonzero"/></g><path fill="#ffffff" d="M 35.222656 19.242188 L 39.160156 19.242188 L 39.160156 23.152344 C 39.160156 23.324219 39.195312 23.492188 39.261719 23.65625 C 39.328125 23.816406 39.425781 23.957031 39.550781 24.082031 C 39.675781 24.207031 39.816406 24.300781 39.980469 24.367188 C 40.144531 24.433594 40.3125 24.46875 40.488281 24.46875 C 40.664062 24.46875 40.832031 24.433594 40.996094 24.367188 C 41.15625 24.300781 41.300781 24.207031 41.425781 24.082031 C 41.550781 23.957031 41.644531 23.816406 41.714844 23.65625 C 41.78125 23.492188 41.816406 23.324219 41.816406 23.152344 L 41.816406 19.242188 L 45.75 19.242188 C 45.925781 19.242188 46.097656 19.210938 46.257812 19.144531 C 46.421875 19.078125 46.566406 18.980469 46.691406 18.859375 C 46.8125 18.734375 46.910156 18.59375 46.976562 18.429688 C 47.042969 18.269531 47.078125 18.101562 47.078125 17.925781 C 47.078125 17.753906 47.042969 17.585938 46.976562 17.421875 C 46.910156 17.261719 46.8125 17.121094 46.691406 16.996094 C 46.566406 16.871094 46.421875 16.777344 46.257812 16.710938 C 46.097656 16.644531 45.925781 16.609375 45.75 16.609375 L 41.816406 16.609375 L 41.816406 12.703125 C 41.816406 12.527344 41.78125 12.359375 41.714844 12.199219 C 41.644531 12.039062 41.550781 11.894531 41.425781 11.773438 C 41.300781 11.648438 41.15625 11.554688 40.996094 11.488281 C 40.832031 11.421875 40.664062 11.386719 40.488281 11.386719 C 40.3125 11.386719 40.144531 11.421875 39.980469 11.488281 C 39.816406 11.554688 39.675781 11.648438 39.550781 11.773438 C 39.425781 11.894531 39.328125 12.039062 39.261719 12.199219 C 39.195312 12.359375 39.160156 12.527344 39.160156 12.703125 L 39.160156 16.609375 L 35.222656 16.609375 C 35.046875 16.609375 34.878906 16.644531 34.714844 16.710938 C 34.554688 16.777344 34.410156 16.871094 34.285156 16.996094 C 34.160156 17.121094 34.066406 17.261719 34 17.421875 C 33.929688 17.585938 33.898438 17.753906 33.898438 17.925781 C 33.898438 18.101562 33.929688 18.269531 34 18.429688 C 34.066406 18.59375 34.160156 18.734375 34.285156 18.859375 C 34.410156 18.980469 34.554688 19.078125 34.714844 19.144531 C 34.878906 19.210938 35.046875 19.242188 35.222656 19.242188 Z M 35.222656 19.242188 " fill-opacity="1" fill-rule="nonzero"/></svg>